<svg width="15" height="18" viewBox="0 0 15 18" fill="none" xmlns="http://www.w3.org/2000/svg">
<g clip-path="url(#clip0_1_20)">
<path d="M7.50051 11.6653C4.45834 11.6653 1.98385 9.0493 1.98385 5.83317C1.98385 2.61705 4.45834 0 7.50051 0C10.5427 0 13.0182 2.61598 13.0182 5.8321C13.0182 9.04822 10.5427 11.6642 7.50051 11.6642V11.6653ZM7.50051 1.82186C5.40819 1.82186 3.70717 3.62122 3.70717 5.8321C3.70717 8.04298 5.4092 9.84234 7.50051 9.84234C9.59181 9.84234 11.2949 8.04298 11.2949 5.8321C11.2949 3.62122 9.59282 1.82186 7.50051 1.82186Z" fill="#CCCCCC"/>
<path d="M0.861661 18C0.386227 18 0 17.5917 0 17.0891C0 13.8301 1.80138 10.8251 4.58911 9.43189C5.01892 9.21648 5.53288 9.41153 5.73664 9.86592C5.94039 10.3203 5.7559 10.8637 5.32608 11.0791C3.13746 12.1722 1.72332 14.531 1.72332 17.0891C1.72332 17.5917 1.3371 18 0.861661 18Z" fill="#CCCCCC"/>
<path d="M14.1383 18C13.6629 18 13.2767 17.5917 13.2767 17.0891C13.2767 14.531 11.8625 12.1722 9.67392 11.0791C9.24309 10.8637 9.05961 10.3214 9.26336 9.86592C9.46611 9.41153 9.98006 9.21648 10.4109 9.43189C13.1996 10.8251 15.001 13.8301 15.001 17.0891C15.001 17.5917 14.6148 18 14.1394 18H14.1383Z" fill="#CCCCCC"/>
</g>
<defs>
<clipPath id="clip0_1_20">
<rect width="15" height="18" fill="white"/>
</clipPath>
</defs>
</svg>
