<svg width="13" height="18" viewBox="0 0 13 18" fill="none" xmlns="http://www.w3.org/2000/svg">
<g clip-path="url(#clip0_1_13)">
<path d="M6.5 18C2.9154 18 0 15.3924 0 12.1889C0 8.98532 2.9154 6.37777 6.5 6.37777C10.0846 6.37777 13 8.9842 13 12.1889C13 15.3936 10.0846 18 6.5 18ZM6.5 8.29675C4.09975 8.29675 2.14646 10.043 2.14646 12.1889C2.14646 14.3348 4.09975 16.081 6.5 16.081C8.90025 16.081 10.8535 14.3348 10.8535 12.1889C10.8535 10.043 8.90025 8.29675 6.5 8.29675Z" fill="#CCCCCC"/>
<path d="M10.7626 10.1401C10.1705 10.1401 9.6894 9.71002 9.6894 9.18061V4.79744C9.6894 3.21033 8.24495 1.91898 6.4697 1.91898C4.69445 1.91898 3.25 3.21033 3.25 4.79744V9.18061C3.25 9.71002 2.76894 10.1401 2.17677 10.1401C1.5846 10.1401 1.10354 9.71002 1.10354 9.18061V4.79744C1.10354 2.15264 3.5101 0 6.4697 0C9.4293 0 11.8359 2.15264 11.8359 4.79744V9.18061C11.8359 9.71002 11.3548 10.1401 10.7626 10.1401Z" fill="#CCCCCC"/>
<path d="M6.46969 13.978C5.87752 13.978 5.39646 13.548 5.39646 13.0186V11.7769C5.39646 11.2475 5.87752 10.8174 6.46969 10.8174C7.06187 10.8174 7.54293 11.2475 7.54293 11.7769V13.0186C7.54293 13.548 7.06187 13.978 6.46969 13.978Z" fill="#CCCCCC"/>
</g>
<defs>
<clipPath id="clip0_1_13">
<rect width="13" height="18" fill="white"/>
</clipPath>
</defs>
</svg>
