<svg width="6" height="6" viewBox="0 0 6 6" fill="none" xmlns="http://www.w3.org/2000/svg">
<g clip-path="url(#clip0_24_571)">
<path d="M5.70683 1.39665C4.74621 2.86334 4.46902 3.26763 2.82952 5.5452C2.43691 6.0161 2.1679 6.06549 1.88435 5.94259C1.5081 5.75883 0.471141 3.85454 0.124882 3.35033C-0.239553 2.67498 0.260296 1.78601 0.841029 2.05247C1.14366 2.1903 1.96978 3.59726 2.22152 3.94298C2.99492 2.95408 4.15366 1.1612 4.91071 0.225135C5.38783 -0.365217 6.5393 0.26878 5.70683 1.3978V1.39665Z" fill="white"/>
<g clip-path="url(#clip1_24_571)">
<path d="M5.70683 1.39665C4.74621 2.86334 4.46902 3.26763 2.82952 5.5452C2.43691 6.0161 2.1679 6.06549 1.88435 5.94259C1.5081 5.75883 0.471141 3.85454 0.124882 3.35033C-0.239553 2.67498 0.260296 1.78601 0.841029 2.05247C1.14366 2.1903 1.96978 3.59726 2.22152 3.94298C2.99492 2.95408 4.15366 1.1612 4.91071 0.225135C5.38783 -0.365217 6.5393 0.26878 5.70683 1.3978V1.39665Z" fill="white"/>
</g>
</g>
<defs>
<clipPath id="clip0_24_571">
<rect width="6" height="6" fill="white"/>
</clipPath>
<clipPath id="clip1_24_571">
<rect width="6" height="6" fill="white"/>
</clipPath>
</defs>
</svg>
